<svg width="60" height="60" viewBox="0 0 60 60" fill="none" xmlns="http://www.w3.org/2000/svg">
<circle cx="30" cy="30" r="30" fill="#E4DDF4"/>
<path fill-rule="evenodd" clip-rule="evenodd" d="M34.5915 16.1799L41.7464 23.705C41.9357 23.9047 42.0416 24.17 42.0416 24.4467V37.5529C42.0416 41.1386 39.1449 44.1667 35.7143 44.1667H24.4324C20.8013 44.1667 17.9583 41.2613 17.9583 37.5529V33.9786C17.9583 33.3882 18.4328 32.9089 19.0175 32.9089C19.6022 32.9089 20.0768 33.3882 20.0768 33.9786V37.5529C20.0768 40.1032 21.9481 42.0272 24.4324 42.0272H35.7143C37.9966 42.0272 39.9231 39.9776 39.9231 37.5529V24.876L34.5152 19.188V21.0536C34.5152 22.4856 35.6691 23.6537 37.0871 23.6566C37.6718 23.658 38.1449 24.1372 38.1435 24.7291C38.1421 25.3182 37.669 25.796 37.0842 25.796H37.0828C34.4997 25.7903 32.3967 23.6637 32.3967 21.0536V17.9899H24.4324C22.071 17.9899 20.0768 19.9354 20.0768 22.2388V28.1636C20.0768 28.7541 19.6022 29.2334 19.0175 29.2334C18.4328 29.2334 17.9583 28.7541 17.9583 28.1636V22.2388C17.9583 18.7758 20.9228 15.8504 24.4324 15.8504H33.374C33.3876 15.8491 33.4 15.8454 33.4121 15.8418C33.4265 15.8375 33.4406 15.8333 33.4559 15.8333C33.4725 15.8333 33.4872 15.8378 33.502 15.8422C33.5137 15.8457 33.5253 15.8492 33.5378 15.8504H33.8274C34.1155 15.8504 34.3909 15.9688 34.5915 16.1799ZM30.5146 35.8215C30.5146 36.412 30.04 36.8912 29.4553 36.8912C28.8706 36.8912 28.3961 36.412 28.3961 35.8215V29.0352L26.197 31.2674C25.7846 31.6867 25.1138 31.6867 24.6985 31.2702C24.2847 30.8537 24.2833 30.1762 24.6957 29.7569L28.7054 25.6905V25.6891C28.8974 25.4966 29.163 25.3768 29.4553 25.3768C29.7491 25.3768 30.0132 25.4966 30.2053 25.6891V25.6905L34.2149 29.7569C34.6273 30.1762 34.6259 30.8537 34.2121 31.2702C34.0045 31.477 33.7347 31.5811 33.4636 31.5811C33.1924 31.5811 32.9212 31.477 32.7136 31.2674L30.5146 29.0352V35.8215Z" fill="#6E47D5"/>
</svg>
