<svg width="219" height="28" viewBox="0 0 219 28" fill="none" xmlns="http://www.w3.org/2000/svg">
<path d="M12.7111 13.282C14.2058 13.5607 15.4725 14.3207 16.5111 15.562C17.5498 16.8033 18.0691 18.2473 18.0691 19.894C18.0691 21.2367 17.7271 22.4527 17.0431 23.542C16.3845 24.606 15.4091 25.4547 14.1171 26.088C12.8251 26.696 11.2798 27 9.48112 27H0.285117V0.437998H9.21512C11.9005 0.437998 13.9398 1.05866 15.3331 2.3C16.7518 3.54133 17.4611 5.15 17.4611 7.126C17.4611 8.77267 17.0178 10.1153 16.1311 11.154C15.2445 12.1673 14.1045 12.8767 12.7111 13.282ZM2.94512 12.18H9.13912C10.9378 12.18 12.3185 11.762 13.2811 10.926C14.2691 10.0647 14.7631 8.88667 14.7631 7.392C14.7631 5.92267 14.2691 4.77 13.2811 3.934C12.3185 3.098 10.8998 2.68 9.02512 2.68H2.94512V12.18ZM9.29112 24.758C11.2165 24.758 12.7111 24.302 13.7751 23.39C14.8645 22.478 15.4091 21.224 15.4091 19.628C15.4091 18.032 14.8391 16.7653 13.6991 15.828C12.5845 14.8653 11.0771 14.384 9.17712 14.384H2.94512V24.758H9.29112ZM21.7429 16.588C21.7429 14.46 22.1609 12.598 22.9969 11.002C23.8583 9.38067 25.0363 8.13933 26.5309 7.278C28.0509 6.39133 29.7609 5.948 31.6609 5.948C33.6369 5.948 35.3343 6.404 36.7529 7.316C38.1969 8.228 39.2356 9.39333 39.8689 10.812V6.252H42.5289V27H39.8689V22.402C39.2103 23.8207 38.1589 24.9987 36.7149 25.936C35.2963 26.848 33.5989 27.304 31.6229 27.304C29.7483 27.304 28.0509 26.8607 26.5309 25.974C25.0363 25.0873 23.8583 23.8333 22.9969 22.212C22.1609 20.5907 21.7429 18.716 21.7429 16.588ZM39.8689 16.626C39.8689 14.954 39.5269 13.4847 38.8429 12.218C38.1589 10.9513 37.2216 9.976 36.0309 9.292C34.8656 8.608 33.5736 8.266 32.1549 8.266C30.6856 8.266 29.3683 8.59533 28.2029 9.254C27.0376 9.91267 26.1129 10.8753 25.4289 12.142C24.7703 13.3833 24.4409 14.8653 24.4409 16.588C24.4409 18.2853 24.7703 19.78 25.4289 21.072C26.1129 22.3387 27.0376 23.314 28.2029 23.998C29.3683 24.6567 30.6856 24.986 32.1549 24.986C33.5736 24.986 34.8656 24.644 36.0309 23.96C37.2216 23.276 38.1589 22.3007 38.8429 21.034C39.5269 19.7673 39.8689 18.298 39.8689 16.626ZM73.3015 5.872C75.7335 5.872 77.7095 6.64466 79.2295 8.19C80.7749 9.71 81.5475 11.9267 81.5475 14.84V27H78.9255V15.144C78.9255 12.8893 78.3809 11.1667 77.2915 9.976C76.2022 8.78533 74.7202 8.19 72.8455 8.19C70.8949 8.19 69.3369 8.836 68.1715 10.128C67.0062 11.42 66.4235 13.2947 66.4235 15.752V27H63.8015V15.144C63.8015 12.8893 63.2569 11.1667 62.1675 9.976C61.0782 8.78533 59.5835 8.19 57.6835 8.19C55.7329 8.19 54.1749 8.836 53.0095 10.128C51.8442 11.42 51.2615 13.2947 51.2615 15.752V27H48.6015V6.252H51.2615V9.824C51.9202 8.532 52.8575 7.55667 54.0735 6.898C55.2895 6.214 56.6449 5.872 58.1395 5.872C59.9382 5.872 61.5089 6.30267 62.8515 7.164C64.2195 8.02533 65.2075 9.292 65.8155 10.964C66.3729 9.31733 67.3229 8.06333 68.6655 7.202C70.0335 6.31533 71.5789 5.872 73.3015 5.872ZM94.599 27.304C92.2177 27.304 90.267 26.7593 88.747 25.67C87.2524 24.5553 86.4164 23.048 86.239 21.148H88.975C89.1017 22.3133 89.6464 23.2633 90.609 23.998C91.597 24.7073 92.9144 25.062 94.561 25.062C96.005 25.062 97.1324 24.72 97.943 24.036C98.779 23.352 99.197 22.5033 99.197 21.49C99.197 20.7807 98.969 20.198 98.513 19.742C98.057 19.286 97.4744 18.9313 96.765 18.678C96.081 18.3993 95.1437 18.108 93.953 17.804C92.4077 17.3987 91.1537 16.9933 90.191 16.588C89.2284 16.1827 88.405 15.5873 87.721 14.802C87.0624 13.9913 86.733 12.9147 86.733 11.572C86.733 10.5587 87.037 9.62133 87.645 8.76C88.253 7.89867 89.1144 7.21467 90.229 6.708C91.3437 6.20133 92.6104 5.948 94.029 5.948C96.2584 5.948 98.057 6.518 99.425 7.658C100.793 8.77267 101.528 10.318 101.629 12.294H98.969C98.893 11.078 98.4117 10.1027 97.525 9.368C96.6637 8.608 95.473 8.228 93.953 8.228C92.6104 8.228 91.521 8.54467 90.685 9.178C89.849 9.81133 89.431 10.5967 89.431 11.534C89.431 12.3447 89.6717 13.016 90.153 13.548C90.6597 14.0547 91.2804 14.46 92.015 14.764C92.7497 15.0427 93.7377 15.3593 94.979 15.714C96.4737 16.1193 97.6644 16.512 98.551 16.892C99.4377 17.272 100.198 17.8293 100.831 18.564C101.464 19.2987 101.794 20.274 101.819 21.49C101.819 22.6047 101.515 23.6053 100.907 24.492C100.299 25.3533 99.4504 26.0373 98.361 26.544C97.2717 27.0507 96.0177 27.304 94.599 27.304ZM129.68 13.282C131.175 13.5607 132.441 14.3207 133.48 15.562C134.519 16.8033 135.038 18.2473 135.038 19.894C135.038 21.2367 134.696 22.4527 134.012 23.542C133.353 24.606 132.378 25.4547 131.086 26.088C129.794 26.696 128.249 27 126.45 27H117.254V0.437998H126.184C128.869 0.437998 130.909 1.05866 132.302 2.3C133.721 3.54133 134.43 5.15 134.43 7.126C134.43 8.77267 133.987 10.1153 133.1 11.154C132.213 12.1673 131.073 12.8767 129.68 13.282ZM119.914 12.18H126.108C127.907 12.18 129.287 11.762 130.25 10.926C131.238 10.0647 131.732 8.88667 131.732 7.392C131.732 5.92267 131.238 4.77 130.25 3.934C129.287 3.098 127.869 2.68 125.994 2.68H119.914V12.18ZM126.26 24.758C128.185 24.758 129.68 24.302 130.744 23.39C131.833 22.478 132.378 21.224 132.378 19.628C132.378 18.032 131.808 16.7653 130.668 15.828C129.553 14.8653 128.046 14.384 126.146 14.384H119.914V24.758H126.26ZM138.712 16.588C138.712 14.46 139.13 12.598 139.966 11.002C140.827 9.38067 142.005 8.13933 143.5 7.278C145.02 6.39133 146.73 5.948 148.63 5.948C150.606 5.948 152.303 6.404 153.722 7.316C155.166 8.228 156.204 9.39333 156.838 10.812V6.252H159.498V27H156.838V22.402C156.179 23.8207 155.128 24.9987 153.684 25.936C152.265 26.848 150.568 27.304 148.592 27.304C146.717 27.304 145.02 26.8607 143.5 25.974C142.005 25.0873 140.827 23.8333 139.966 22.212C139.13 20.5907 138.712 18.716 138.712 16.588ZM156.838 16.626C156.838 14.954 156.496 13.4847 155.812 12.218C155.128 10.9513 154.19 9.976 153 9.292C151.834 8.608 150.542 8.266 149.124 8.266C147.654 8.266 146.337 8.59533 145.172 9.254C144.006 9.91267 143.082 10.8753 142.398 12.142C141.739 13.3833 141.41 14.8653 141.41 16.588C141.41 18.2853 141.739 19.78 142.398 21.072C143.082 22.3387 144.006 23.314 145.172 23.998C146.337 24.6567 147.654 24.986 149.124 24.986C150.542 24.986 151.834 24.644 153 23.96C154.19 23.276 155.128 22.3007 155.812 21.034C156.496 19.7673 156.838 18.298 156.838 16.626ZM190.27 5.872C192.702 5.872 194.678 6.64466 196.198 8.19C197.744 9.71 198.516 11.9267 198.516 14.84V27H195.894V15.144C195.894 12.8893 195.35 11.1667 194.26 9.976C193.171 8.78533 191.689 8.19 189.814 8.19C187.864 8.19 186.306 8.836 185.14 10.128C183.975 11.42 183.392 13.2947 183.392 15.752V27H180.77V15.144C180.77 12.8893 180.226 11.1667 179.136 9.976C178.047 8.78533 176.552 8.19 174.652 8.19C172.702 8.19 171.144 8.836 169.978 10.128C168.813 11.42 168.23 13.2947 168.23 15.752V27H165.57V6.252H168.23V9.824C168.889 8.532 169.826 7.55667 171.042 6.898C172.258 6.214 173.614 5.872 175.108 5.872C176.907 5.872 178.478 6.30267 179.82 7.164C181.188 8.02533 182.176 9.292 182.784 10.964C183.342 9.31733 184.292 8.06333 185.634 7.202C187.002 6.31533 188.548 5.872 190.27 5.872ZM211.568 27.304C209.186 27.304 207.236 26.7593 205.716 25.67C204.221 24.5553 203.385 23.048 203.208 21.148H205.944C206.07 22.3133 206.615 23.2633 207.578 23.998C208.566 24.7073 209.883 25.062 211.53 25.062C212.974 25.062 214.101 24.72 214.912 24.036C215.748 23.352 216.166 22.5033 216.166 21.49C216.166 20.7807 215.938 20.198 215.482 19.742C215.026 19.286 214.443 18.9313 213.734 18.678C213.05 18.3993 212.112 18.108 210.922 17.804C209.376 17.3987 208.122 16.9933 207.16 16.588C206.197 16.1827 205.374 15.5873 204.69 14.802C204.031 13.9913 203.702 12.9147 203.702 11.572C203.702 10.5587 204.006 9.62133 204.614 8.76C205.222 7.89867 206.083 7.21467 207.198 6.708C208.312 6.20133 209.579 5.948 210.998 5.948C213.227 5.948 215.026 6.518 216.394 7.658C217.762 8.77267 218.496 10.318 218.598 12.294H215.938C215.862 11.078 215.38 10.1027 214.494 9.368C213.632 8.608 212.442 8.228 210.922 8.228C209.579 8.228 208.49 8.54467 207.654 9.178C206.818 9.81133 206.4 10.5967 206.4 11.534C206.4 12.3447 206.64 13.016 207.122 13.548C207.628 14.0547 208.249 14.46 208.984 14.764C209.718 15.0427 210.706 15.3593 211.948 15.714C213.442 16.1193 214.633 16.512 215.52 16.892C216.406 17.272 217.166 17.8293 217.8 18.564C218.433 19.2987 218.762 20.274 218.788 21.49C218.788 22.6047 218.484 23.6053 217.876 24.492C217.268 25.3533 216.419 26.0373 215.33 26.544C214.24 27.0507 212.986 27.304 211.568 27.304Z" fill="#1D212A"/>
</svg>
